<svg width="24" height="24" xmlns="http://www.w3.org/2000/svg">

 <g>
  <title>background</title>
  <rect fill="none" id="canvas_background" height="402" width="582" y="-1" x="-1"/>
 </g>
 <g>
  <title>Layer 1</title>
  <path fill="#ffffff" id="svg_2" d="m10,9c0,-1.7 1.3,-3 3,-3s3,1.3 3,3c0,1.7 -1.3,3 -3,3s-3,-1.3 -3,-3zm3,5c-4.6,0 -6,3.3 -6,3.3l0,1.7l12,0l0,-1.7c0,0 -1.4,-3.3 -6,-3.3z"/>
  <circle fill="#ffffff" id="svg_5" r="2.5" cy="8.5" cx="19.5"/>
  <path fill="#ffffff" id="svg_7" d="m19.5,13c-1.2,0 -2.1,0.3 -2.8,0.8c2.3,1.1 3.2,3 3.2,3.2l0,0.1l4.1,0l0,-1.3c0,-0.1 -1.1,-2.8 -4.5,-2.8z"/>
  <line id="svg_8" y2="16" y1="8" x2="5" x1="5" stroke-width="2" stroke-miterlimit="10" stroke="#000000" fill="none"/>
  <line id="svg_9" y2="12" y1="12" x2="1" x1="9" stroke-width="2" stroke-miterlimit="10" stroke="#000000" fill="none"/>
 </g>
</svg>